<mxfile host="app.diagrams.net" modified="2023-11-02T13:04:02.371Z" agent="Mozilla/5.0 (Windows NT 10.0; Win64; x64) AppleWebKit/537.36 (KHTML, like Gecko) Chrome/118.0.0.0 Safari/537.36" etag="H_25lambZ7NvCx36w0F_" version="22.0.8" type="device">
  <diagram name="第 1 页" id="Mm0hC2-zrbVgDmfwnK1h">
    <mxGraphModel dx="336" dy="533" grid="0" gridSize="10" guides="1" tooltips="1" connect="1" arrows="1" fold="1" page="1" pageScale="1" pageWidth="827" pageHeight="1169" math="0" shadow="0">
      <root>
        <mxCell id="0" />
        <mxCell id="1" parent="0" />
        <mxCell id="MWRULVRWjAI7JQODRnuG-5" value="Stack" style="swimlane;fontStyle=1;align=center;verticalAlign=top;childLayout=stackLayout;horizontal=1;startSize=26;horizontalStack=0;resizeParent=1;resizeParentMax=0;resizeLast=0;collapsible=1;marginBottom=0;whiteSpace=wrap;html=1;" vertex="1" parent="1">
          <mxGeometry x="80" y="200" width="160" height="113" as="geometry" />
        </mxCell>
        <mxCell id="MWRULVRWjAI7JQODRnuG-6" value="size : int" style="text;strokeColor=none;fillColor=none;align=left;verticalAlign=top;spacingLeft=4;spacingRight=4;overflow=hidden;rotatable=0;points=[[0,0.5],[1,0.5]];portConstraint=eastwest;whiteSpace=wrap;html=1;" vertex="1" parent="MWRULVRWjAI7JQODRnuG-5">
          <mxGeometry y="26" width="160" height="26" as="geometry" />
        </mxCell>
        <mxCell id="MWRULVRWjAI7JQODRnuG-7" value="" style="line;strokeWidth=1;fillColor=none;align=left;verticalAlign=middle;spacingTop=-1;spacingLeft=3;spacingRight=3;rotatable=0;labelPosition=right;points=[];portConstraint=eastwest;strokeColor=inherit;" vertex="1" parent="MWRULVRWjAI7JQODRnuG-5">
          <mxGeometry y="52" width="160" height="8" as="geometry" />
        </mxCell>
        <mxCell id="MWRULVRWjAI7JQODRnuG-8" value="Push(elem : T) : int&lt;br&gt;Pop() : int&lt;br&gt;GetTop() : const T&amp;amp;" style="text;strokeColor=none;fillColor=none;align=left;verticalAlign=top;spacingLeft=4;spacingRight=4;overflow=hidden;rotatable=0;points=[[0,0.5],[1,0.5]];portConstraint=eastwest;whiteSpace=wrap;html=1;" vertex="1" parent="MWRULVRWjAI7JQODRnuG-5">
          <mxGeometry y="60" width="160" height="53" as="geometry" />
        </mxCell>
        <mxCell id="MWRULVRWjAI7JQODRnuG-9" value="&lt;span style=&quot;font-size: 20px;&quot;&gt;模板類&lt;/span&gt;" style="text;align=center;fontStyle=1;verticalAlign=middle;spacingLeft=3;spacingRight=3;strokeColor=none;rotatable=0;points=[[0,0.5],[1,0.5]];portConstraint=eastwest;html=1;" vertex="1" parent="1">
          <mxGeometry x="120" y="341" width="80" height="26" as="geometry" />
        </mxCell>
        <mxCell id="MWRULVRWjAI7JQODRnuG-10" value="&lt;font style=&quot;font-size: 21px;&quot;&gt;T&lt;/font&gt;" style="html=1;whiteSpace=wrap;align=left;" vertex="1" parent="1">
          <mxGeometry x="190" y="182" width="39" height="28" as="geometry" />
        </mxCell>
        <mxCell id="MWRULVRWjAI7JQODRnuG-11" value="&lt;span style=&quot;font-size: 21px;&quot;&gt;模板參數&lt;/span&gt;" style="html=1;whiteSpace=wrap;align=left;" vertex="1" parent="1">
          <mxGeometry x="296" y="215" width="91" height="28" as="geometry" />
        </mxCell>
        <mxCell id="MWRULVRWjAI7JQODRnuG-17" value="" style="html=1;verticalAlign=bottom;endArrow=block;curved=0;rounded=0;" edge="1" parent="1">
          <mxGeometry width="80" relative="1" as="geometry">
            <mxPoint x="293" y="232" as="sourcePoint" />
            <mxPoint x="240" y="200" as="targetPoint" />
          </mxGeometry>
        </mxCell>
      </root>
    </mxGraphModel>
  </diagram>
</mxfile>
